<svg width="28" height="28" viewBox="0 0 28 28" fill="none" xmlns="http://www.w3.org/2000/svg">
<g opacity="0.8">
<path d="M13.9572 0C6.249 0 0 6.24883 0 13.957C0 21.6655 6.249 27.9138 13.9572 27.9138C21.6662 27.9138 27.9145 21.6655 27.9145 13.957C27.9145 6.24933 21.6662 0.000666663 13.957 0.000666663L13.9572 0ZM20.3578 20.13C20.1078 20.54 19.5712 20.67 19.1612 20.4183C15.8842 18.4167 11.7588 17.9633 6.9005 19.0733C6.43233 19.18 5.96567 18.8867 5.859 18.4183C5.75183 17.95 6.044 17.4833 6.51333 17.3767C11.83 16.1615 16.3905 16.685 20.0695 18.9333C20.4795 19.185 20.6095 19.72 20.3578 20.13ZM22.0662 16.3292C21.7512 16.8417 21.0812 17.0033 20.5695 16.6883C16.8178 14.3818 11.099 13.714 6.6615 15.061C6.086 15.2348 5.47817 14.9105 5.3035 14.336C5.13017 13.7605 5.45467 13.1538 6.02917 12.9788C11.098 11.4408 17.3995 12.1858 21.7078 14.8333C22.2195 15.1483 22.3812 15.8182 22.0662 16.3292ZM22.2128 12.3718C17.7145 9.7 10.2928 9.45433 5.998 10.7578C5.30833 10.967 4.579 10.5777 4.37 9.888C4.161 9.198 4.55 8.46917 5.24017 8.2595C10.1703 6.76283 18.3662 7.052 23.5452 10.1265C24.1668 10.4947 24.3702 11.2958 24.0018 11.9153C23.6352 12.5357 22.8318 12.7402 22.2135 12.3718H22.2128Z" fill="white"/>
</g>
</svg>
